<svg width="20" height="20" viewBox="0 0 20 20" fill="none" xmlns="http://www.w3.org/2000/svg">
<path d="M3.33334 16.25V3.75001C3.33334 3.19747 3.55284 2.66757 3.94354 2.27687C4.33424 1.88617 4.86414 1.66667 5.41668 1.66667H15.8333C16.0544 1.66667 16.2663 1.75447 16.4226 1.91075C16.5789 2.06703 16.6667 2.27899 16.6667 2.50001V17.5C16.6667 17.721 16.5789 17.933 16.4226 18.0893C16.2663 18.2455 16.0544 18.3333 15.8333 18.3333H5.41668C4.86414 18.3333 4.33424 18.1138 3.94354 17.7231C3.55284 17.3324 3.33334 16.8025 3.33334 16.25ZM3.33334 16.25C3.33334 15.6975 3.55284 15.1676 3.94354 14.7769C4.33424 14.3862 4.86414 14.1667 5.41668 14.1667H16.6667" stroke="white" stroke-width="1.66667" stroke-linecap="round" stroke-linejoin="round"/>
<path d="M7.5 7.91667L9.16667 9.58333L12.5 6.25" stroke="white" stroke-width="1.66667" stroke-linecap="round" stroke-linejoin="round"/>
</svg>
