<svg width="14" height="14" viewBox="0 0 14 14" fill="none" xmlns="http://www.w3.org/2000/svg">
<g id="check">
<path id="Vector" d="M4.86205 11.594C4.78723 11.5914 4.71372 11.5737 4.64602 11.5417C4.57832 11.5098 4.51786 11.4644 4.46833 11.4082L0.754046 7.69396C0.683228 7.64804 0.623767 7.58664 0.580153 7.51438C0.536539 7.44212 0.509912 7.3609 0.502282 7.27684C0.494651 7.19279 0.506218 7.1081 0.536107 7.02917C0.565996 6.95024 0.613428 6.87913 0.67482 6.82121C0.736212 6.76329 0.809961 6.72008 0.890497 6.69484C0.971034 6.66959 1.05625 6.66298 1.13972 6.67549C1.22319 6.68799 1.30272 6.7193 1.37232 6.76705C1.44192 6.8148 1.49976 6.87773 1.54147 6.9511L4.86205 10.2494L12.6398 2.49396C12.7445 2.42607 12.8689 2.3953 12.9932 2.40658C13.1175 2.41786 13.2344 2.47054 13.3252 2.55618C13.416 2.64181 13.4753 2.75545 13.4938 2.87886C13.5123 3.00228 13.4889 3.12833 13.4272 3.23681L5.25576 11.4082C5.20624 11.4644 5.14577 11.5098 5.07807 11.5417C5.01037 11.5737 4.93686 11.5914 4.86205 11.594Z" fill="#6C757D"/>
</g>
</svg>
