<svg width="15" height="14" viewBox="0 0 15 14" fill="none" xmlns="http://www.w3.org/2000/svg">
<g clip-path="url(#clip0_2439_24417)">
<path fill-rule="evenodd" clip-rule="evenodd" d="M7.5 14C6.11553 14 4.76215 13.5895 3.61101 12.8203C2.45987 12.0511 1.56266 10.9579 1.03285 9.67879C0.503033 8.3997 0.36441 6.99224 0.634506 5.63437C0.904603 4.2765 1.57129 3.02922 2.55026 2.05026C3.52922 1.07129 4.7765 0.404603 6.13437 0.134506C7.49224 -0.13559 8.8997 0.00303295 10.1788 0.532846C11.4579 1.06266 12.5511 1.95987 13.3203 3.11101C14.0895 4.26215 14.5 5.61553 14.5 7C14.5 8.85652 13.7625 10.637 12.4497 11.9497C11.137 13.2625 9.35652 14 7.5 14ZM7.5 1.16667C6.34628 1.16667 5.21846 1.50879 4.25918 2.14976C3.29989 2.79074 2.55222 3.70178 2.11071 4.76768C1.66919 5.83358 1.55367 7.00647 1.77876 8.13803C2.00384 9.26958 2.55941 10.309 3.37521 11.1248C4.19102 11.9406 5.23042 12.4962 6.36198 12.7212C7.49353 12.9463 8.66642 12.8308 9.73232 12.3893C10.7982 11.9478 11.7093 11.2001 12.3502 10.2408C12.9912 9.28154 13.3333 8.15373 13.3333 7C13.3333 5.45291 12.7188 3.96918 11.6248 2.87521C10.5308 1.78125 9.0471 1.16667 7.5 1.16667ZM7.49996 7.77777C7.34588 7.77576 7.19867 7.71365 7.08971 7.60469C6.98075 7.49573 6.91864 7.34852 6.91663 7.19444V4.47222C6.91663 4.31751 6.97808 4.16914 7.08748 4.05974C7.19688 3.95034 7.34525 3.88889 7.49996 3.88889C7.65467 3.88889 7.80304 3.95034 7.91244 4.05974C8.02183 4.16914 8.08329 4.31751 8.08329 4.47222V7.19444C8.08128 7.34852 8.01917 7.49573 7.91021 7.60469C7.80125 7.71365 7.65404 7.77576 7.49996 7.77777ZM7.08971 9.93801C7.19867 10.047 7.34588 10.1091 7.49996 10.1111C7.65404 10.1091 7.80125 10.047 7.91021 9.93801C8.01917 9.82905 8.08128 9.68185 8.08329 9.52776V9.13888C8.08329 8.98417 8.02183 8.83579 7.91244 8.7264C7.80304 8.617 7.65467 8.55554 7.49996 8.55554C7.34525 8.55554 7.19688 8.617 7.08748 8.7264C6.97808 8.83579 6.91663 8.98417 6.91663 9.13888V9.52776C6.91864 9.68185 6.98075 9.82905 7.08971 9.93801Z" fill="#696CFF"/>
</g>
<defs>
<clipPath id="clip0_2439_24417">
<rect width="14" height="14" fill="white" transform="translate(0.5)"/>
</clipPath>
</defs>
</svg>
