<svg width="24" height="24" viewBox="0 0 24 24" fill="none" xmlns="http://www.w3.org/2000/svg">
<path d="M13.0562 12L17.4762 7.57996C17.5499 7.5113 17.609 7.4285 17.65 7.3365C17.691 7.2445 17.713 7.14518 17.7148 7.04448C17.7166 6.94378 17.6981 6.84375 17.6603 6.75036C17.6226 6.65697 17.5665 6.57214 17.4953 6.50092C17.424 6.4297 17.3392 6.37356 17.2458 6.33584C17.1524 6.29811 17.0524 6.27959 16.9517 6.28137C16.851 6.28314 16.7517 6.30519 16.6597 6.34618C16.5677 6.38717 16.4849 6.44627 16.4162 6.51996L11.9962 10.94L7.57621 6.51996C7.43404 6.38748 7.24599 6.31535 7.05169 6.31878C6.85739 6.32221 6.67201 6.40092 6.53459 6.53834C6.39718 6.67575 6.31847 6.86113 6.31504 7.05544C6.31161 7.24974 6.38373 7.43778 6.51621 7.57996L10.9362 12L6.51621 16.42C6.37576 16.5606 6.29688 16.7512 6.29688 16.95C6.29688 17.1487 6.37576 17.3393 6.51621 17.48C6.65684 17.6204 6.84746 17.6993 7.04622 17.6993C7.24497 17.6993 7.43559 17.6204 7.57621 17.48L11.9962 13.06L16.4162 17.48C16.5568 17.6204 16.7475 17.6993 16.9462 17.6993C17.145 17.6993 17.3356 17.6204 17.4762 17.48C17.6167 17.3393 17.6956 17.1487 17.6956 16.95C17.6956 16.7512 17.6167 16.5606 17.4762 16.42L13.0562 12Z" fill="#616161"/>
</svg>
