<svg width="15" height="14" viewBox="0 0 15 14" fill="none" xmlns="http://www.w3.org/2000/svg">
<path d="M2.25 5.83594C2.75085 6.44343 3.34089 6.97152 4 7.40219L2.25 5.83594ZM12.75 5.83594C12.2491 6.44343 11.6591 6.97152 11 7.40219L12.75 5.83594ZM6.33333 8.34952L6.04167 9.6276L6.33333 8.34952ZM6.33333 8.3501C7.10405 8.49833 7.89595 8.49833 8.66667 8.3501H6.33333ZM6.33333 8.3501C5.50176 8.18739 4.70945 7.86552 4 7.40219L6.33333 8.3501ZM8.66667 8.34952L8.95833 9.6276L8.66667 8.34952ZM8.66667 8.3501C9.49824 8.18739 10.2905 7.86552 11 7.40219L8.66667 8.3501ZM11 7.40219L11.875 8.46094L11 7.40219ZM4 7.40219L3.125 8.46094L4 7.40219Z" fill="#6C757D"/>
<path d="M2.25 5.83594C2.75085 6.44343 3.34089 6.97152 4 7.40219M4 7.40219C4.70945 7.86552 5.50176 8.18739 6.33333 8.3501C7.10405 8.49833 7.89595 8.49833 8.66667 8.3501C9.49824 8.18739 10.2905 7.86552 11 7.40219M4 7.40219L3.125 8.46094M12.75 5.83594C12.2491 6.44343 11.6591 6.97152 11 7.40219M11 7.40219L11.875 8.46094M6.33333 8.34952L6.04167 9.6276M8.66667 8.34952L8.95833 9.6276" stroke="#6C757D" stroke-linecap="round" stroke-linejoin="round"/>
</svg>
