<svg width="14" height="14" viewBox="0 0 14 14" fill="none" xmlns="http://www.w3.org/2000/svg">
<path fill-rule="evenodd" clip-rule="evenodd" d="M6.99996 3.93717C7.56375 3.93717 8.02079 3.48013 8.02079 2.91634C8.02079 2.35255 7.56375 1.89551 6.99996 1.89551C6.43617 1.89551 5.97913 2.35255 5.97913 2.91634C5.97913 3.48013 6.43617 3.93717 6.99996 3.93717ZM6.99996 8.02051C7.56375 8.02051 8.02079 7.56346 8.02079 6.99967C8.02079 6.43588 7.56375 5.97884 6.99996 5.97884C6.43617 5.97884 5.97913 6.43588 5.97913 6.99967C5.97913 7.56346 6.43617 8.02051 6.99996 8.02051ZM8.02079 11.083C8.02079 11.6468 7.56375 12.1038 6.99996 12.1038C6.43617 12.1038 5.97913 11.6468 5.97913 11.083C5.97913 10.5192 6.43617 10.0622 6.99996 10.0622C7.56375 10.0622 8.02079 10.5192 8.02079 11.083Z" fill="white"/>
</svg>
