<svg width="20" height="20" viewBox="0 0 20 20" fill="none" xmlns="http://www.w3.org/2000/svg">
<g clip-path="url(#clip0_443_3965)">
<path d="M14.9993 17.5C14.9993 15.7319 14.297 14.0362 13.0467 12.786C11.7965 11.5357 10.1008 10.8333 8.33268 10.8333C6.56457 10.8333 4.86888 11.5357 3.61864 12.786C2.36839 14.0362 1.66602 15.7319 1.66602 17.5" stroke="#AEAEB2" stroke-width="1.66667" stroke-linecap="round" stroke-linejoin="round"/>
<path d="M8.33268 10.8333C10.6339 10.8333 12.4993 8.96785 12.4993 6.66667C12.4993 4.36548 10.6339 2.5 8.33268 2.5C6.0315 2.5 4.16602 4.36548 4.16602 6.66667C4.16602 8.96785 6.0315 10.8333 8.33268 10.8333Z" stroke="#AEAEB2" stroke-width="1.66667" stroke-linecap="round" stroke-linejoin="round"/>
<path d="M18.3333 16.6666C18.3333 13.8583 16.6667 11.2499 15 9.99995C15.5478 9.58892 15.9859 9.04919 16.2755 8.42851C16.565 7.80783 16.6971 7.12534 16.66 6.44145C16.6229 5.75756 16.4178 5.09335 16.0629 4.50762C15.7079 3.92188 15.2141 3.43267 14.625 3.08328" stroke="#AEAEB2" stroke-width="1.66667" stroke-linecap="round" stroke-linejoin="round"/>
</g>
<defs>
<clipPath id="clip0_443_3965">
<rect width="20" height="20" fill="white"/>
</clipPath>
</defs>
</svg>
